<svg width="36" height="36" viewBox="0 0 36 36" fill="none" xmlns="http://www.w3.org/2000/svg">
<circle cx="18" cy="18" r="18" fill="#F78B1E"/>
<path d="M14.25 11.125V12.3125L10.505 14.7519V24.875H25.495V14.7519L21.75 12.3112V11.125H14.25ZM15.5 12.375H20.5V17.1762L18 18.7956L15.5 17.1762V12.375ZM16.125 13.625V14.875H19.875V13.625H16.125ZM14.25 13.8031V16.3669L12.2775 15.0887L14.25 13.8031ZM21.75 13.8031L23.7225 15.0887L21.75 16.3669V13.8031ZM16.125 15.5V16.75H19.875V15.5H16.125ZM11.755 16.24L18 20.285L24.245 16.24V23.625H11.755V16.24Z" fill="white"/>
</svg>
