<svg width="36" height="36" viewBox="0 0 36 36" fill="none" xmlns="http://www.w3.org/2000/svg">
<circle cx="18" cy="18" r="18" fill="black"/>
<g clip-path="url(#clip0_1_287)">
<path fill-rule="evenodd" clip-rule="evenodd" d="M26.9792 14.6666C27.1039 15.2134 27.1668 15.7725 27.1667 16.3333H19.6667V8.83331C21.3662 8.83331 23.0153 9.41048 24.3438 10.4703C25.6724 11.5301 26.6016 13.0097 26.9792 14.6666ZM25.2567 14.6666C24.98 13.7383 24.4765 12.8935 23.7915 12.2086C23.1065 11.5236 22.2617 11.02 21.3334 10.7433V14.6666H25.2567Z" fill="white"/>
<path fill-rule="evenodd" clip-rule="evenodd" d="M8.83337 19.6667C8.83337 18.5401 9.08714 17.428 9.57585 16.413C10.0646 15.398 10.7756 14.5061 11.6563 13.8036C12.5369 13.1011 13.5645 12.606 14.6628 12.3551C15.761 12.1041 16.9017 12.1038 18 12.3542V18H23.6459C23.8804 19.0293 23.8951 20.0965 23.6889 21.1318C23.4826 22.1671 23.0601 23.1472 22.449 24.008C21.838 24.8688 21.052 25.5909 20.1427 26.1271C19.2333 26.6633 18.221 27.0015 17.172 27.1195C16.1229 27.2375 15.0608 27.1328 14.055 26.8121C13.0492 26.4914 12.1225 25.962 11.3354 25.2585C10.5483 24.555 9.91858 23.6933 9.48742 22.7297C9.05627 21.7661 8.83339 20.7223 8.83337 19.6667ZM22.0025 19.6667H16.3334V13.9967C15.2119 13.9965 14.1156 14.3289 13.1831 14.9518C12.2505 15.5747 11.5237 16.4602 11.0944 17.4963C10.6651 18.5323 10.5527 19.6724 10.7714 20.7723C10.9901 21.8722 11.53 22.8826 12.323 23.6757C13.1159 24.4687 14.1262 25.0088 15.2261 25.2276C16.326 25.4465 17.4661 25.3343 18.5022 24.9051C19.5383 24.476 20.4239 23.7493 21.0469 22.8168C21.67 21.8844 22.0025 20.7881 22.0025 19.6667Z" fill="white"/>
</g>
<defs>
<clipPath id="clip0_1_287">
<rect width="20" height="20" fill="white" transform="translate(8 8)"/>
</clipPath>
</defs>
</svg>

