<svg width="36" height="36" viewBox="0 0 36 36" fill="none" xmlns="http://www.w3.org/2000/svg">
<circle cx="18" cy="18" r="18" fill="#513A8D"/>
<path d="M10.5 14.875C10.4999 14.1498 10.6801 13.436 11.0243 12.7978C11.3685 12.1595 11.866 11.6168 12.472 11.2185C13.078 10.8202 13.7734 10.5788 14.4959 10.5159C15.2183 10.4531 15.945 10.5708 16.6107 10.8585C17.2763 11.1461 17.86 11.5948 18.3093 12.164C18.7585 12.7332 19.0593 13.4052 19.1844 14.1195C19.3095 14.8338 19.2552 15.568 19.0262 16.256C18.7972 16.9441 18.4007 17.5644 17.8725 18.0612C18.8685 18.5446 19.7333 19.2609 20.3935 20.1496C21.0537 21.0383 21.4899 22.0731 21.665 23.1662C21.6843 23.2879 21.6795 23.4121 21.6507 23.5319C21.622 23.6516 21.57 23.7646 21.4976 23.8642C21.4252 23.9639 21.3339 24.0483 21.2289 24.1127C21.1239 24.177 21.0073 24.2201 20.8857 24.2394C20.764 24.2587 20.6398 24.2538 20.52 24.2251C20.4003 24.1963 20.2873 24.1443 20.1877 24.0719C20.088 23.9996 20.0036 23.9083 19.9392 23.8033C19.8749 23.6983 19.8318 23.5816 19.8125 23.46C19.625 22.2854 19.0249 21.2161 18.12 20.4441C17.215 19.6721 16.0645 19.2481 14.875 19.2481C13.6856 19.2481 12.535 19.6721 11.6301 20.4441C10.7251 21.2161 10.125 22.2854 9.93754 23.46C9.91816 23.5816 9.87503 23.6983 9.81058 23.8032C9.74614 23.9082 9.66165 23.9994 9.56194 24.0717C9.46224 24.1441 9.34926 24.196 9.22947 24.2247C9.10968 24.2533 8.98542 24.2581 8.86378 24.2387C8.74215 24.2194 8.62552 24.1762 8.52055 24.1118C8.41559 24.0473 8.32434 23.9629 8.25203 23.8631C8.17972 23.7634 8.12775 23.6505 8.0991 23.5307C8.07044 23.4109 8.06567 23.2866 8.08504 23.165C8.26045 22.0723 8.69675 21.0379 9.35695 20.1497C10.0171 19.2615 10.8818 18.5455 11.8775 18.0625C11.4421 17.6537 11.0952 17.1598 10.8583 16.6116C10.6214 16.0633 10.4994 15.4723 10.5 14.875ZM21.75 13C22.4763 13.0005 23.1868 13.2118 23.7953 13.6083C24.4038 14.0048 24.8841 14.5694 25.1779 15.2336C25.4718 15.8977 25.5665 16.6329 25.4506 17.3499C25.3347 18.0668 25.0132 18.7347 24.525 19.2725C25.2859 19.6502 25.9619 20.1788 26.5121 20.826C27.0622 21.4733 27.4749 22.2257 27.725 23.0375C27.7746 23.1951 27.7816 23.363 27.7452 23.5241C27.7089 23.6853 27.6306 23.834 27.5183 23.9551C27.4059 24.0762 27.2635 24.1654 27.1056 24.2137C26.9476 24.262 26.7796 24.2676 26.6188 24.23C26.4581 24.1926 26.31 24.1135 26.1896 24.0007C26.0691 23.8879 25.9805 23.7454 25.9325 23.5875C25.7085 22.8628 25.3003 22.2086 24.7477 21.6888C24.1951 21.1691 23.5171 20.8017 22.78 20.6225C22.5753 20.5731 22.3932 20.4562 22.2631 20.2906C22.1329 20.1251 22.0623 19.9206 22.0625 19.71V19.27C22.0624 19.0954 22.111 18.9243 22.2029 18.7759C22.2948 18.6275 22.4263 18.5077 22.5825 18.43C22.9615 18.2422 23.2658 17.9318 23.4461 17.5492C23.6264 17.1666 23.672 16.7343 23.5755 16.3225C23.4791 15.9107 23.2463 15.5436 22.9149 15.2808C22.5835 15.018 22.173 14.875 21.75 14.875C21.5014 14.875 21.2629 14.7762 21.0871 14.6004C20.9113 14.4246 20.8125 14.1861 20.8125 13.9375C20.8125 13.6888 20.9113 13.4504 21.0871 13.2746C21.2629 13.0988 21.5014 13 21.75 13ZM14.875 12.375C14.5421 12.3675 14.211 12.4265 13.9013 12.5487C13.5915 12.6709 13.3092 12.8537 13.0711 13.0865C12.8329 13.3193 12.6437 13.5973 12.5144 13.9042C12.3852 14.2111 12.3186 14.5407 12.3185 14.8737C12.3184 15.2067 12.3849 15.5364 12.514 15.8434C12.643 16.1504 12.8321 16.4284 13.0702 16.6613C13.3082 16.8942 13.5904 17.0772 13.9001 17.1995C14.2098 17.3219 14.5409 17.3811 14.8738 17.3737C15.527 17.3593 16.1486 17.0897 16.6055 16.6227C17.0624 16.1557 17.3184 15.5283 17.3185 14.875C17.3187 14.2216 17.0631 13.5942 16.6064 13.1269C16.1497 12.6597 15.5282 12.3898 14.875 12.375Z" fill="white"/>
</svg>
