<svg width="36" height="36" viewBox="0 0 36 36" fill="none" xmlns="http://www.w3.org/2000/svg">
<circle cx="18" cy="18" r="18" fill="#0077C0"/>
<path d="M21.125 10.5C20.0044 10.5 18.9888 10.71 18.195 11.1056C17.4019 11.5012 16.75 12.1456 16.75 13V15.5C16.75 15.5806 16.7769 15.6588 16.7894 15.7344C16.1638 15.5754 15.5205 15.4966 14.875 15.5C13.7544 15.5 12.7387 15.71 11.945 16.1056C11.1519 16.5012 10.5 17.1456 10.5 18V23C10.5 23.8544 11.1519 24.4987 11.9456 24.8944C12.7388 25.29 13.7544 25.5 14.875 25.5C15.9956 25.5 17.0113 25.29 17.805 24.8944C18.5975 24.4987 19.25 23.8544 19.25 23V22.7463C19.8614 22.9115 20.4917 22.9968 21.125 23C22.2456 23 23.2612 22.79 24.055 22.3944C24.8475 21.9987 25.5 21.3544 25.5 20.5V13C25.5 12.1456 24.8481 11.5012 24.0544 11.1056C23.2619 10.71 22.2463 10.5 21.125 10.5ZM21.125 11.75C22.0769 11.75 22.9244 11.955 23.4881 12.2381C24.0525 12.5213 24.25 12.8194 24.25 13C24.25 13.1813 24.0525 13.4787 23.4881 13.7619C22.925 14.045 22.0769 14.25 21.125 14.25C20.1731 14.25 19.3256 14.045 18.7619 13.7619C18.1975 13.4787 18 13.1806 18 13C18 12.8187 18.1975 12.5213 18.7619 12.2381C19.325 11.955 20.1731 11.75 21.125 11.75ZM18 14.7775C18.0656 14.8137 18.1269 14.8606 18.1956 14.8944C18.9887 15.29 20.0044 15.5 21.125 15.5C22.2456 15.5 23.2612 15.29 24.055 14.8944C24.1231 14.8606 24.1844 14.8137 24.25 14.7775V15.5C24.25 15.6813 24.0525 15.9787 23.4881 16.2619C22.9244 16.545 22.0769 16.75 21.125 16.75C20.1731 16.75 19.3256 16.545 18.7619 16.2619C18.1975 15.9787 18 15.6806 18 15.5V14.7775ZM14.875 16.75C15.8269 16.75 16.6744 16.955 17.2381 17.2381C17.8025 17.5213 18 17.8194 18 18C18 18.1813 17.8025 18.4787 17.2381 18.7619C16.6744 19.045 15.8269 19.25 14.875 19.25C13.9231 19.25 13.0756 19.045 12.5119 18.7619C11.9475 18.4787 11.75 18.1806 11.75 18C11.75 17.8187 11.9475 17.5213 12.5119 17.2381C13.075 16.955 13.9231 16.75 14.875 16.75ZM24.25 17.2775V18C24.25 18.1813 24.0525 18.4787 23.4881 18.7619C22.9244 19.045 22.0769 19.25 21.125 19.25C20.4883 19.2535 19.8552 19.1545 19.25 18.9569V18C19.25 17.9194 19.2231 17.8412 19.2106 17.7656C19.7919 17.9169 20.4362 18 21.125 18C22.2456 18 23.2612 17.79 24.055 17.3944C24.1231 17.3606 24.1844 17.3137 24.25 17.2775ZM11.75 19.7775C11.8156 19.8138 11.8769 19.8606 11.9456 19.8944C12.7388 20.29 13.7544 20.5 14.875 20.5C15.9956 20.5 17.0113 20.29 17.805 19.8944C17.8731 19.8606 17.9344 19.8138 18 19.7775V20.5C18 20.6812 17.8025 20.9788 17.2381 21.2619C16.6744 21.545 15.8269 21.75 14.875 21.75C13.9231 21.75 13.0756 21.545 12.5119 21.2619C11.9475 20.9788 11.75 20.6806 11.75 20.5V19.7775ZM24.25 19.7775V20.5C24.25 20.6812 24.0525 20.9788 23.4881 21.2619C22.9244 21.545 22.0769 21.75 21.125 21.75C20.4144 21.75 19.7725 21.65 19.25 21.4762V20.2656C19.8237 20.4169 20.4487 20.5 21.125 20.5C22.2456 20.5 23.2612 20.29 24.055 19.8944C24.1231 19.8606 24.1844 19.8138 24.25 19.7775ZM11.75 22.2775C11.8156 22.3138 11.8769 22.3606 11.9456 22.3944C12.7388 22.79 13.7544 23 14.875 23C15.9956 23 17.0113 22.79 17.805 22.3944C17.8731 22.3606 17.9344 22.3138 18 22.2775V23C18 23.1812 17.8025 23.4788 17.2381 23.7619C16.6744 24.045 15.8269 24.25 14.875 24.25C13.9231 24.25 13.0756 24.045 12.5119 23.7619C11.9475 23.4788 11.75 23.1806 11.75 23V22.2775Z" fill="white"/>
</svg>
